<svg id="visual" viewBox="0 0 960 540" width="960" height="540" xmlns="http://www.w3.org/2000/svg" xmlns:xlink="http://www.w3.org/1999/xlink" version="1.1"><rect x="0" y="0" width="960" height="540" fill="#191a1a"></rect><path d="M0 411L17.8 400C35.7 389 71.3 367 106.8 343C142.3 319 177.7 293 213.2 288.2C248.7 283.3 284.3 299.7 320 330.8C355.7 362 391.3 408 426.8 418.8C462.3 429.7 497.7 405.3 533.2 385.5C568.7 365.7 604.3 350.3 640 358.2C675.7 366 711.3 397 746.8 402.8C782.3 408.7 817.7 389.3 853.2 366.8C888.7 344.3 924.3 318.7 942.2 305.8L960 293L960 541L942.2 541C924.3 541 888.7 541 853.2 541C817.7 541 782.3 541 746.8 541C711.3 541 675.7 541 640 541C604.3 541 568.7 541 533.2 541C497.7 541 462.3 541 426.8 541C391.3 541 355.7 541 320 541C284.3 541 248.7 541 213.2 541C177.7 541 142.3 541 106.8 541C71.3 541 35.7 541 17.8 541L0 541Z" fill="#4FACF7" stroke-linecap="round" stroke-linejoin="miter"></path></svg>