<svg id="visual" viewBox="0 0 960 540" width="960" height="540" xmlns="http://www.w3.org/2000/svg" xmlns:xlink="http://www.w3.org/1999/xlink" version="1.1"><rect x="0" y="0" width="960" height="540" fill="#001122"></rect><path d="M0 391L22.8 402C45.7 413 91.3 435 137 443.2C182.7 451.3 228.3 445.7 274 429C319.7 412.3 365.3 384.7 411.2 381.2C457 377.7 503 398.3 548.8 410.2C594.7 422 640.3 425 686 423C731.7 421 777.3 414 823 414.5C868.7 415 914.3 423 937.2 427L960 431L960 541L937.2 541C914.3 541 868.7 541 823 541C777.3 541 731.7 541 686 541C640.3 541 594.7 541 548.8 541C503 541 457 541 411.2 541C365.3 541 319.7 541 274 541C228.3 541 182.7 541 137 541C91.3 541 45.7 541 22.8 541L0 541Z" fill="#0066FF" stroke-linecap="round" stroke-linejoin="miter"></path></svg>